<svg version="1.1" id="Layer_1" xmlns="http://www.w3.org/2000/svg" xmlns:xlink="http://www.w3.org/1999/xlink" x="0px" y="0px"
	 width="100%" viewBox="0 0 1131 980" enable-background="new 0 0 1131 980" xml:space="preserve">
<path fill="#9F9A81" opacity="1.000000" stroke="none" 
	d="
M642.000000,0.999996 
	C711.020874,1.000000 780.041809,1.000000 849.617065,1.338446 
	C855.133545,10.318995 860.061829,18.980690 865.064636,27.599131 
	C875.394836,45.395046 885.764771,63.167896 896.195251,81.292847 
	C900.896240,89.566223 905.520325,97.496994 910.158142,105.571228 
	C910.171875,105.714699 910.361023,105.932213 910.452393,106.214096 
	C911.083618,107.336723 911.623535,108.177475 912.263306,109.339661 
	C916.218628,116.117050 920.074158,122.572998 924.022156,129.373581 
	C928.808838,137.947128 933.416199,146.227219 938.223816,154.389328 
	C942.333740,161.366928 946.673462,168.209198 951.037170,175.469223 
	C950.922668,178.297562 951.445557,181.201187 950.326416,183.172592 
	C936.315979,207.852036 922.036804,232.378677 907.893311,256.982880 
	C900.448547,269.933899 893.134583,282.960083 885.492188,296.138519 
	C884.007202,298.415253 882.791565,300.505798 881.337036,302.836060 
	C879.438416,305.941864 877.778687,308.807922 875.703308,312.391876 
	C877.896973,312.391876 879.083740,312.391876 880.720154,312.425476 
	C928.977844,312.497955 976.786072,312.579193 1024.593994,312.491791 
	C1028.248779,312.485107 1030.336548,313.621704 1032.099854,316.781647 
	C1038.503906,328.258575 1045.150879,339.600220 1051.721191,350.984192 
	C1071.432007,385.135498 1091.112061,419.304749 1110.885742,453.419617 
	C1117.801270,465.350739 1124.954956,477.143860 1132.000000,489.000000 
	C1132.000000,490.066681 1132.000000,491.133331 1131.685547,492.728455 
	C1115.656860,520.285156 1099.908081,547.293396 1084.237671,574.347046 
	C1066.650146,604.710388 1049.104370,635.098145 1031.632324,665.528076 
	C1029.961548,668.438110 1028.039673,669.615417 1024.574219,669.604980 
	C978.608582,669.466492 932.642395,669.488464 886.676392,669.470520 
	C883.587341,669.469360 880.498291,669.470337 876.394165,669.470337 
	C877.872925,672.294006 878.711792,674.043396 879.678040,675.719299 
	C902.524780,715.344421 925.248108,755.042114 948.389709,794.494385 
	C951.902344,800.482727 951.745605,804.740479 948.146790,810.569458 
	C939.594299,824.422302 931.894470,838.801514 923.564941,853.134277 
	C922.722717,854.126831 922.113403,854.922913 921.616089,855.783691 
	C905.657410,883.409241 889.670044,911.018372 873.783936,938.685669 
	C868.999634,947.018005 864.500977,955.514404 859.625000,964.164917 
	C856.252319,969.929504 853.126160,975.464722 850.000000,981.000000 
	C781.312439,981.000000 712.624878,981.000000 643.352661,980.666321 
	C639.539185,974.879272 636.310425,969.425842 633.020264,963.689453 
	C632.623352,962.944702 632.287781,962.482849 631.890015,961.675110 
	C629.392517,957.163452 626.957153,952.997803 624.374268,948.500122 
	C609.593872,922.861450 594.960938,897.554749 580.243286,871.950806 
	C579.105408,870.102478 578.052307,868.551392 576.967773,866.708313 
	C576.640198,865.936035 576.344116,865.455811 575.968750,864.630310 
	C572.948792,859.180237 570.008118,854.075378 566.500671,847.986694 
	C559.565979,860.384338 553.252319,871.671753 546.688599,883.190674 
	C527.625671,915.948120 508.812836,948.474060 490.000000,981.000000 
	C421.312439,981.000000 352.624878,981.000000 283.478638,980.639648 
	C270.576263,958.496399 258.196960,936.676453 245.674454,914.939026 
	C224.686005,878.505981 203.566925,842.147949 182.689575,805.651550 
	C181.715897,803.949402 181.726273,800.745300 182.684799,799.023987 
	C191.090149,783.929871 199.841354,769.028687 208.439957,754.041687 
	C221.591553,731.118958 234.703308,708.173340 248.083328,685.058899 
	C251.151886,680.048584 253.969086,675.216797 257.151123,669.759277 
	C253.374268,669.759277 250.652130,669.759277 247.474274,669.672241 
	C201.366318,669.545959 155.714035,669.520935 110.061913,669.425476 
	C107.794174,669.420715 105.527718,668.803406 103.224197,668.223389 
	C102.725311,667.526733 102.262894,667.077942 101.765640,666.406616 
	C101.730812,666.183960 101.507652,665.792419 101.427574,665.436279 
	C94.194130,652.536316 87.116486,639.948547 79.867981,627.459961 
	C71.037025,612.244873 62.062332,597.113220 53.090126,581.662354 
	C52.710297,580.907166 52.390133,580.435120 52.026112,579.649353 
	C51.362572,578.510254 50.742889,577.684814 50.087021,576.907837 
	C50.050831,576.956299 50.148926,576.885498 50.056046,576.542114 
	C44.662045,567.126099 39.360928,558.053528 34.009548,548.695618 
	C33.657772,547.929626 33.356255,547.448975 32.953857,546.630371 
	C28.588854,538.826721 24.402140,531.315613 20.042131,523.906372 
	C13.760795,513.232056 7.353526,502.631836 0.999996,492.000000 
	C1.000000,491.555542 1.000000,491.111115 1.186622,490.050049 
	C16.142324,464.031281 30.951046,438.652100 45.670536,413.221252 
	C64.389702,380.880249 83.036591,348.497406 101.923576,315.976105 
	C102.389572,315.193115 102.646629,314.566650 103.175491,313.592468 
	C105.734085,313.019043 108.020683,312.598541 110.307655,312.596436 
	C151.854507,312.558441 193.401413,312.575317 234.948303,312.560455 
	C237.268204,312.559601 239.588028,312.385345 242.298950,312.404968 
	C243.491959,312.441132 244.293900,312.364105 245.442154,312.368225 
	C246.492569,312.393951 247.196686,312.338562 248.330185,312.397766 
	C251.326736,312.512390 253.893906,312.512390 258.132965,312.512390 
	C252.237793,303.431335 247.165497,295.617828 242.026993,287.507568 
	C241.644897,286.472534 241.329010,285.734222 241.019974,284.635254 
	C239.369568,281.495331 237.712280,278.716034 235.986847,275.595398 
	C218.297195,244.742432 200.718613,214.205856 182.989532,183.756897 
	C181.163651,180.621017 181.157623,178.245697 182.977737,175.105438 
	C204.400146,138.145279 225.408203,100.941460 247.173813,64.185799 
	C254.189438,52.338531 258.659882,39.208107 267.514954,28.201525 
	C273.971588,20.176165 277.928650,10.139836 283.000000,1.000000 
	C352.020905,1.000000 421.041779,1.000000 490.519318,1.363784 
	C491.648041,3.057907 492.259094,4.423357 493.001099,5.713471 
	C513.140991,40.728725 533.284424,75.741951 553.453491,110.740448 
	C557.650269,118.022964 561.950256,125.246025 566.575867,133.132660 
	C568.033569,130.746002 569.090454,129.092056 570.073303,127.395226 
	C590.237732,92.580116 610.445312,57.789780 630.508728,22.916557 
	C634.619080,15.772096 638.183777,8.313684 642.000000,0.999996 
M608.915771,152.962692 
	C608.915771,152.962692 608.835754,152.828354 608.292908,153.228973 
	C606.890686,155.831955 605.488464,158.434921 603.665833,161.428772 
	C603.427979,161.945312 603.190125,162.461868 602.427307,163.399750 
	C599.783508,167.985657 597.013306,172.506195 594.582642,177.202423 
	C593.956543,178.411957 593.822510,180.490433 594.447632,181.628601 
	C597.385864,186.978134 600.667419,192.139130 603.946960,198.039108 
	C625.073547,234.668869 646.248169,271.271179 667.249207,307.972778 
	C669.248047,311.465912 671.477051,312.688934 675.477051,312.675720 
	C720.475464,312.527039 765.475037,312.678131 810.473267,312.501221 
	C824.041138,312.447906 823.231506,315.343201 828.629395,299.738739 
	C832.088501,294.493500 835.547546,289.248260 839.460754,283.495300 
	C858.559692,250.515930 877.600037,217.502319 896.833069,184.601318 
	C899.191895,180.566147 898.667725,177.494370 896.457520,173.690903 
	C872.623169,132.675842 848.896423,91.598015 825.269897,50.462879 
	C823.531250,47.435917 821.540466,46.284939 818.145630,46.290257 
	C770.318237,46.365227 722.490601,46.374687 674.663269,46.290195 
	C670.992798,46.283710 669.021851,47.742916 667.252686,50.868664 
	C658.397339,66.514069 649.250244,81.993919 640.304504,97.588669 
	C630.867004,114.040535 621.540894,130.556351 611.629883,147.450653 
	C610.689514,149.249939 609.749207,151.049225 608.915771,152.962692 
M533.770569,794.867310 
	C533.770569,794.867310 533.722656,794.839661 534.477844,794.682983 
	C533.092285,792.357727 531.612976,790.082520 530.337646,787.698364 
	C525.260803,778.207581 520.497192,768.540405 515.164185,759.197327 
	C498.912933,730.725952 482.398163,702.405090 466.142700,673.936096 
	C464.236298,670.597229 462.048065,669.437378 458.247833,669.446777 
	C410.759094,669.564575 363.269928,669.551697 315.781097,669.457336 
	C311.875885,669.449585 309.463654,670.572754 307.467621,674.182434 
	C300.219635,687.289673 292.538879,700.156738 285.110107,713.165100 
	C277.941345,725.718018 270.882233,738.333679 263.248718,751.323181 
	C257.974976,760.331055 252.669312,769.320496 247.461624,778.366394 
	C246.670746,779.740173 246.335083,781.375977 245.264145,783.299744 
	C244.099976,785.089661 242.935806,786.879639 241.275223,789.139038 
	C239.492523,792.114319 237.865433,795.197998 235.887161,798.036987 
	C233.496124,801.468445 233.725571,804.408081 236.984787,807.009766 
	C236.984787,807.009766 236.811584,807.173340 236.935379,807.874573 
	C242.730820,817.684143 248.526245,827.493713 254.505981,838.018005 
	C254.690994,838.482178 254.821884,838.977539 255.068756,839.406067 
	C272.842529,870.261414 290.659241,901.092224 308.347900,931.996216 
	C309.869995,934.655457 311.832916,935.051208 314.485077,935.048828 
	C362.798767,935.005188 411.112549,934.992432 459.426178,935.056580 
	C462.215790,935.060303 463.834290,934.327332 465.318573,931.733276 
	C479.034454,907.762573 492.973053,883.919434 506.776886,859.998840 
	C514.254822,847.040344 521.596985,834.003418 529.529358,820.576538 
	C531.977173,816.482300 534.482239,812.421021 536.859619,808.286255 
	C540.676880,801.647339 540.504150,800.623779 534.318726,794.375732 
	C534.140381,794.557556 533.962036,794.739319 533.770569,794.867310 
M763.207031,415.956055 
	C766.919250,409.334625 770.631470,402.713196 774.635681,395.728333 
	C774.635681,395.728333 774.741333,395.274200 775.162842,394.807281 
	C782.164062,382.816772 789.165222,370.826263 796.555054,358.170166 
	C793.883179,358.170166 792.424194,358.170166 790.038452,358.054871 
	C770.769165,358.037842 751.499817,358.026642 732.230530,358.002472 
	C702.497314,357.965149 672.764160,357.919006 642.764832,357.242157 
	C639.522217,351.810608 636.279541,346.379059 632.897095,340.262482 
	C610.968994,302.243103 589.040894,264.223694 566.848633,225.746262 
	C565.823181,227.197983 565.199158,227.948990 564.717407,228.782288 
	C540.725159,270.286896 516.698059,311.771606 492.848389,353.358093 
	C490.838379,356.862946 488.676575,358.125305 484.648285,358.112701 
	C437.654572,357.965393 390.660278,358.012726 343.666138,358.008636 
	C341.738617,358.008453 339.811096,358.008606 337.153015,358.008606 
	C338.515686,360.658630 339.406067,362.584747 340.462097,364.415253 
	C363.502472,404.353333 386.484253,444.325653 409.719696,484.149963 
	C412.443054,488.817657 412.859100,492.176025 409.955322,497.123535 
	C388.974182,532.871094 368.379059,568.845337 347.676270,604.756226 
	C344.319092,610.579529 341.034698,616.444763 337.086609,623.400696 
	C341.067139,623.400696 343.682129,623.399658 346.297150,623.400879 
	C392.624298,623.421753 438.951477,623.460571 485.278595,623.423340 
	C488.324493,623.420898 490.403320,623.957886 492.130554,626.977234 
	C513.201538,663.812012 534.435791,700.553284 555.647095,737.307678 
	C559.156189,743.388062 562.757812,749.415039 566.597656,755.944458 
	C567.993713,753.753357 568.932861,752.396362 569.755066,750.971924 
	C593.136780,710.463806 616.594360,669.998901 639.756348,629.365479 
	C642.357910,624.801636 645.230652,623.288696 650.300659,623.306213 
	C696.294312,623.465637 742.288757,623.394470 788.283020,623.362488 
	C790.504456,623.360962 792.725769,623.095337 795.737000,622.901917 
	C794.666504,620.810242 794.068848,619.507935 793.356873,618.271423 
	C781.563965,597.790527 769.782715,577.302856 757.945679,556.847473 
	C745.442078,535.240234 732.882324,513.665466 720.354370,491.293060 
	C720.864380,489.845245 721.374390,488.397430 722.323120,486.574402 
	C722.550659,486.050476 722.778259,485.526520 723.554199,484.596191 
	C727.579956,477.366058 731.605713,470.135925 736.104858,462.538269 
	C736.362793,462.012573 736.620728,461.486877 737.354797,460.475586 
	C745.750366,445.921112 754.145996,431.366608 762.735901,416.662628 
	C762.735901,416.662628 762.770264,416.419830 763.207031,415.956055 
M782.622131,474.000977 
	C779.875122,478.746216 776.983398,483.416901 774.475525,488.285339 
	C773.787598,489.620819 773.609802,491.897797 774.291443,493.145172 
	C777.627258,499.249817 781.332581,505.152527 785.099304,511.795502 
	C787.490051,515.986206 789.862793,520.187195 792.274414,524.365845 
	C810.580872,556.085571 828.931030,587.780334 847.145020,619.553101 
	C848.765137,622.379333 850.572693,623.438110 853.827515,623.431824 
	C901.826904,623.338562 949.826660,623.326660 997.825867,623.463257 
	C1001.723328,623.474365 1003.756531,622.052185 1005.627747,618.795227 
	C1029.422241,577.378418 1053.322021,536.021973 1077.290161,494.705414 
	C1078.916260,491.902130 1078.894653,489.836365 1077.240234,486.987366 
	C1053.086182,445.393219 1029.037354,403.737793 1005.088501,362.025146 
	C1003.344666,358.987762 1001.328003,357.924316 997.934387,357.947632 
	C979.602112,358.073578 961.268494,358.002441 942.935303,358.004913 
	C913.268921,358.008911 883.602539,358.017914 853.936157,358.022888 
	C851.467529,358.023315 848.752625,357.529266 847.505920,361.398621 
	C836.335022,380.687927 825.108459,399.945251 814.009583,419.275848 
	C803.741089,437.160248 793.609314,455.123169 783.154663,473.244263 
	C783.154663,473.244263 783.043457,473.550537 782.622131,474.000977 
M840.800171,700.455627 
	C840.444641,700.002502 840.089111,699.549316 839.653381,698.402100 
	C834.429993,689.603027 829.206665,680.803955 823.760071,671.196045 
	C821.805664,670.638916 819.852234,669.599731 817.896606,669.595459 
	C770.581360,669.491150 723.265564,669.553406 675.950562,669.394104 
	C671.369690,669.378723 668.693298,670.988770 666.480469,674.885071 
	C654.320923,696.295898 641.979492,717.603455 629.685730,738.937927 
	C618.303101,758.690918 606.826416,778.390686 595.628845,798.247925 
	C594.543457,800.172729 594.097778,803.635498 595.099121,805.387512 
	C618.960388,847.136780 643.109924,888.721069 667.028137,930.438049 
	C669.046936,933.959106 671.271545,935.111938 675.210815,935.101013 
	C721.026550,934.974365 766.844482,934.819641 812.657227,935.212402 
	C820.446228,935.279175 825.172607,933.404602 828.359863,926.027649 
	C832.219971,917.093140 836.954468,908.507385 841.739319,900.012085 
	C844.700684,894.754456 848.633850,890.053772 851.815979,884.908386 
	C855.754822,878.539551 859.390747,871.982300 863.116638,865.483032 
	C874.452148,845.709839 885.767944,825.925415 897.625244,805.646790 
	C897.730469,803.511902 898.695862,800.892395 897.808167,799.316956 
	C888.622620,783.015076 879.138123,766.881531 869.579529,750.260376 
	C869.579529,750.260376 869.233032,749.945740 869.035522,749.256104 
	C859.668457,733.179016 850.301392,717.101868 840.800171,700.455627 
M289.649506,82.195564 
	C272.308594,112.329208 255.181931,142.589981 237.440552,172.485977 
	C234.018158,178.253036 234.958115,182.046722 237.968506,187.205490 
	C261.531158,227.584000 284.874207,268.090973 308.150024,308.635834 
	C309.786926,311.487213 311.532166,312.620422 314.782318,312.613525 
	C362.427979,312.512329 410.074066,312.461365 457.719482,312.596619 
	C461.988098,312.608734 464.213409,311.103546 466.275879,307.507538 
	C490.118591,265.936340 514.078613,224.432114 538.169678,183.004410 
	C539.942505,179.955765 539.216064,177.876236 537.740967,175.328415 
	C526.901855,156.606705 516.109497,137.857834 505.312134,119.111977 
	C492.278076,96.482834 479.229156,73.862183 466.253754,51.199448 
	C464.500122,48.136513 462.693726,46.260815 458.602203,46.274452 
	C410.790771,46.433796 362.978485,46.389652 315.166626,46.299751 
	C311.748322,46.293324 309.740662,47.460293 308.051483,50.476242 
	C302.198242,60.927021 296.054626,71.215179 289.649506,82.195564 
M238.500000,358.003815 
	C204.183563,358.004028 169.866974,358.047363 135.550873,357.939850 
	C131.998566,357.928711 129.892365,358.866364 128.066574,362.178650 
	C121.401482,374.270264 114.314735,386.129150 107.408722,398.088318 
	C90.182808,427.918549 72.927834,457.732269 55.864441,487.655212 
	C54.957554,489.245575 55.012768,492.112091 55.821022,493.814301 
	C58.095169,498.603882 60.992252,503.098145 63.651825,507.704163 
	C84.859261,544.432678 106.151825,581.112549 127.158905,617.955261 
	C129.463821,621.997681 131.814651,623.540894 136.446747,623.523926 
	C182.923172,623.353943 229.401093,623.292175 275.876617,623.552673 
	C281.842682,623.586060 285.067383,621.736511 288.002441,616.577515 
	C309.305817,579.132446 330.542694,541.637390 352.711975,504.705231 
	C358.610809,494.878326 359.342316,487.845856 353.176849,477.620026 
	C330.246185,439.588165 308.469269,400.859741 286.368378,362.330200 
	C284.484222,359.045410 282.358765,357.801910 278.478455,357.888672 
	C265.491272,358.178986 252.493637,358.001892 238.500000,358.003815 
z"/>
<path fill="#FFFFFE" opacity="1.000000" stroke="none" 
	d="
M241.907898,312.291840 
	C239.588028,312.385345 237.268204,312.559601 234.948303,312.560455 
	C193.401413,312.575317 151.854507,312.558441 110.307655,312.596436 
	C108.020683,312.598541 105.734085,313.019043 102.923019,313.653076 
	C102.170700,314.751801 101.942673,315.442200 101.714645,316.132599 
	C83.036591,348.497406 64.389702,380.880249 45.670536,413.221252 
	C30.951046,438.652100 16.142324,464.031281 1.186622,489.716705 
	C1.000000,327.092499 1.000000,164.184998 1.000000,1.000000 
	C94.687378,1.000000 188.375031,1.000000 282.531342,1.000000 
	C277.928650,10.139836 273.971588,20.176165 267.514954,28.201525 
	C258.659882,39.208107 254.189438,52.338531 247.173813,64.185799 
	C225.408203,100.941460 204.400146,138.145279 182.977737,175.105438 
	C181.157623,178.245697 181.163651,180.621017 182.989532,183.756897 
	C200.718613,214.205856 218.297195,244.742432 235.860489,275.910431 
	C236.926117,279.755554 234.237915,285.300842 241.013107,284.995941 
	C241.329010,285.734222 241.644897,286.472534 242.037079,287.884644 
	C242.894791,290.198151 243.764664,291.802338 244.440018,293.484619 
	C246.039108,297.468018 245.553314,302.460541 250.234573,304.997955 
	C250.626602,305.210449 250.246780,307.275848 249.875122,308.360291 
	C249.404892,309.732300 248.575363,310.981171 247.900787,312.283173 
	C247.196686,312.338562 246.492569,312.393951 245.362762,312.119324 
	C243.927322,311.956848 242.917618,312.124359 241.907898,312.291840 
z"/>
<path fill="#FFFFFF" opacity="1.000000" stroke="none" 
	d="
M1132.000000,488.531372 
	C1124.954956,477.143860 1117.801270,465.350739 1110.885742,453.419617 
	C1091.112061,419.304749 1071.432007,385.135498 1051.721191,350.984192 
	C1045.150879,339.600220 1038.503906,328.258575 1032.099854,316.781647 
	C1030.336548,313.621704 1028.248779,312.485107 1024.593994,312.491791 
	C976.786072,312.579193 928.977844,312.497955 880.679321,312.084534 
	C880.732056,309.108368 881.275269,306.506714 882.170410,303.835693 
	C885.412598,301.912140 888.531860,300.152924 885.761597,295.952332 
	C893.134583,282.960083 900.448547,269.933899 907.893311,256.982880 
	C922.036804,232.378677 936.315979,207.852036 950.326416,183.172592 
	C951.445557,181.201187 950.922668,178.297562 951.227112,175.237259 
	C951.538696,174.220581 952.108215,173.594696 951.985657,173.396408 
	C949.418213,169.240845 950.794312,163.114258 945.343872,160.317276 
	C944.446594,159.856827 944.218628,158.068085 943.710022,156.880920 
	C943.128967,155.524353 942.761108,154.040070 941.986816,152.808624 
	C937.723022,146.027557 933.487671,139.221115 928.946655,132.627182 
	C927.848389,131.032410 925.631958,130.207733 923.929688,129.028931 
	C920.074158,122.572998 916.218628,116.117050 912.588379,109.267059 
	C913.310791,108.033295 913.807922,107.193565 914.305054,106.353836 
	C912.990356,106.213295 911.675720,106.072754 910.361023,105.932213 
	C910.361023,105.932213 910.171875,105.714699 910.308594,105.178635 
	C910.307556,95.342072 904.976868,88.548203 899.334534,81.962784 
	C898.713928,81.238457 897.211670,81.269539 896.118347,80.950241 
	C885.764771,63.167896 875.394836,45.395046 865.064636,27.599131 
	C860.061829,18.980690 855.133545,10.318995 850.085754,1.338446 
	C943.946594,1.000000 1037.893188,1.000000 1132.000000,1.000000 
	C1132.000000,163.354187 1132.000000,325.708435 1132.000000,488.531372 
M1032.505005,313.515594 
	C1032.505005,313.515594 1032.514771,313.492981 1032.505005,313.515594 
z"/>
<path fill="#FFFFFE" opacity="1.000000" stroke="none" 
	d="
M850.468628,981.000000 
	C853.126160,975.464722 856.252319,969.929504 859.889648,964.247681 
	C861.177856,964.170044 862.436157,964.573547 862.657104,964.255737 
	C864.719299,961.289673 866.739990,958.276184 868.502319,955.125122 
	C870.405457,951.722473 871.856384,948.064819 873.790833,944.682129 
	C878.510071,936.429810 883.366455,928.255310 888.223145,920.082520 
	C891.316650,914.877014 894.539062,909.748230 897.645691,904.550354 
	C899.370483,901.664368 900.994324,898.717407 902.629761,895.779053 
	C904.245361,892.876160 905.758545,889.914307 907.443970,887.053406 
	C908.005493,886.100220 909.516785,885.458313 909.648438,884.538818 
	C910.879211,875.939087 919.460266,870.834656 920.283813,862.018982 
	C920.368958,861.107605 922.204651,860.424805 923.100342,859.510742 
	C925.016785,857.555054 926.907349,855.523743 923.850098,852.967957 
	C931.894470,838.801514 939.594299,824.422302 948.146790,810.569458 
	C951.745605,804.740479 951.902344,800.482727 948.389709,794.494385 
	C925.248108,755.042114 902.524780,715.344421 879.678040,675.719299 
	C878.711792,674.043396 877.872925,672.294006 876.394165,669.470337 
	C880.498291,669.470337 883.587341,669.469360 886.676392,669.470520 
	C932.642395,669.488464 978.608582,669.466492 1024.574219,669.604980 
	C1028.039673,669.615417 1029.961548,668.438110 1031.632324,665.528076 
	C1049.104370,635.098145 1066.650146,604.710388 1084.237671,574.347046 
	C1099.908081,547.293396 1115.656860,520.285156 1131.685547,493.128418 
	C1132.000000,655.574219 1132.000000,818.148438 1132.000000,981.000000 
	C1038.312622,981.000000 944.624939,981.000000 850.468628,981.000000 
z"/>
<path fill="#FFFFFE" opacity="1.000000" stroke="none" 
	d="
M103.260674,668.471313 
	C105.527718,668.803406 107.794174,669.420715 110.061913,669.425476 
	C155.714035,669.520935 201.366318,669.545959 247.631134,669.959961 
	C250.680069,673.862488 250.575485,676.928467 247.122757,679.934814 
	C245.167648,681.637207 244.359772,683.907227 247.831970,685.237488 
	C234.703308,708.173340 221.591553,731.118958 208.439957,754.041687 
	C199.841354,769.028687 191.090149,783.929871 182.684799,799.023987 
	C181.726273,800.745300 181.715897,803.949402 182.689575,805.651550 
	C203.566925,842.147949 224.686005,878.505981 245.674454,914.939026 
	C258.196960,936.676453 270.576263,958.496399 283.010010,980.639648 
	C189.054260,981.000000 95.108513,981.000000 1.000000,981.000000 
	C1.000000,822.645813 1.000000,664.291565 1.355709,505.506287 
	C3.013930,505.999176 4.727144,506.652588 5.545708,507.895264 
	C8.602014,512.535278 11.274969,517.426147 14.273830,522.106262 
	C15.923557,524.680908 18.183067,526.876892 19.734591,529.499756 
	C22.979761,534.985718 25.830349,540.706665 29.135231,546.153809 
	C29.607147,546.931641 31.707844,546.721313 33.054729,546.968323 
	C33.356255,547.448975 33.657772,547.929626 33.779118,548.828247 
	C33.444935,549.842834 32.977592,550.592651 33.183304,551.013367 
	C37.037090,558.895264 40.818634,566.821472 45.032875,574.509521 
	C45.760731,575.837280 48.395164,576.120056 50.148926,576.885498 
	C50.148926,576.885498 50.050831,576.956299 50.101509,577.243347 
	C50.791443,578.341248 51.430702,579.152161 52.069969,579.963013 
	C52.390133,580.435120 52.710297,580.907166 52.910812,581.960083 
	C51.560055,589.786621 57.243950,594.243469 60.014156,599.795288 
	C63.129162,606.038147 66.923775,612.011169 71.005226,617.682373 
	C74.887856,623.077454 74.191406,630.482849 81.025375,635.018494 
	C85.569595,638.034546 87.319664,645.286926 90.269142,650.671204 
	C92.643364,655.005371 94.778198,659.482483 97.379967,663.672302 
	C98.079605,664.798950 100.095795,665.108032 101.507645,665.792480 
	C101.507652,665.792419 101.730812,666.183960 101.527023,666.622803 
	C101.261185,667.759338 101.199135,668.457031 101.137085,669.154785 
	C101.844955,668.927002 102.552818,668.699158 103.260674,668.471313 
z"/>
<path fill="#FEFEFD" opacity="1.000000" stroke="none" 
	d="
M641.531372,0.999996 
	C638.183777,8.313684 634.619080,15.772096 630.508728,22.916557 
	C610.445312,57.789780 590.237732,92.580116 570.073303,127.395226 
	C569.090454,129.092056 568.033569,130.746002 566.575867,133.132660 
	C561.950256,125.246025 557.650269,118.022964 553.453491,110.740448 
	C533.284424,75.741951 513.140991,40.728725 493.001099,5.713471 
	C492.259094,4.423357 491.648041,3.057907 490.987976,1.363784 
	C541.020874,1.000000 591.041809,1.000000 641.531372,0.999996 
z"/>
<path fill="#FEFEFE" opacity="1.000000" stroke="none" 
	d="
M580.328064,872.248108 
	C594.960938,897.554749 609.593872,922.861450 624.073242,948.694763 
	C623.873169,951.671509 622.900940,955.631470 623.958862,956.279907 
	C626.784973,958.012512 626.636108,964.091858 631.952271,962.021057 
	C632.287781,962.482849 632.623352,962.944702 632.848022,963.989014 
	C633.259094,967.220825 633.654480,969.903259 634.336853,972.510559 
	C635.086853,975.376404 636.100952,978.173157 637.000000,981.000000 
	C588.312439,981.000000 539.624878,981.000000 490.468628,981.000000 
	C508.812836,948.474060 527.625671,915.948120 547.052185,883.187866 
	C548.835205,882.472717 550.565186,882.327454 551.085266,881.458252 
	C555.288086,874.434692 559.158203,867.211243 563.401794,860.213684 
	C564.198853,858.899414 566.261597,857.535767 567.646729,857.626221 
	C569.014893,857.715637 570.293274,859.586670 571.558899,860.733704 
	C573.084045,862.115967 574.554077,863.558899 576.048035,864.975525 
	C576.344116,865.455811 576.640198,865.936035 576.790039,867.006409 
	C577.018372,869.486816 577.392883,871.377075 577.767395,873.267395 
	C578.620972,872.927673 579.474548,872.587891 580.328064,872.248108 
z"/>
<path fill="#F4F5EA" opacity="1.000000" stroke="none" 
	d="
M32.953850,546.630371 
	C31.707844,546.721313 29.607147,546.931641 29.135231,546.153809 
	C25.830349,540.706665 22.979761,534.985718 19.734591,529.499756 
	C18.183067,526.876892 15.923557,524.680908 14.273830,522.106262 
	C11.274969,517.426147 8.602014,512.535278 5.545708,507.895264 
	C4.727144,506.652588 3.013930,505.999176 1.355709,505.037659 
	C1.000000,500.975464 1.000000,496.950897 0.999996,492.463196 
	C7.353526,502.631836 13.760795,513.232056 20.042131,523.906372 
	C24.402140,531.315613 28.588854,538.826721 32.953850,546.630371 
z"/>
<path fill="#F4F5EA" opacity="1.000000" stroke="none" 
	d="
M637.428467,981.000000 
	C636.100952,978.173157 635.086853,975.376404 634.336853,972.510559 
	C633.654480,969.903259 633.259094,967.220825 632.909424,964.271973 
	C636.310425,969.425842 639.539185,974.879272 642.883972,980.666321 
	C641.285645,981.000000 639.571289,981.000000 637.428467,981.000000 
z"/>
<path fill="#FFFFFE" opacity="1.000000" stroke="none" 
	d="
M643.030945,357.876617 
	C672.764160,357.919006 702.497314,357.965149 732.230530,358.002472 
	C751.499817,358.026642 770.769165,358.037842 790.542725,358.455627 
	C790.822876,360.385681 791.009033,363.003876 790.308289,363.267883 
	C785.704285,365.002380 785.673157,369.319427 784.196777,372.858673 
	C783.520752,374.479523 782.510559,375.960693 781.656006,377.507477 
	C779.057617,382.210846 776.350525,386.860474 773.966248,391.670044 
	C773.539185,392.531616 774.448914,394.055908 774.741333,395.274200 
	C774.741333,395.274200 774.635681,395.728333 774.108948,395.964600 
	C772.266296,396.810547 770.589783,397.094360 769.694824,398.084564 
	C765.021179,403.255402 762.746704,409.427063 762.770264,416.419830 
	C762.770264,416.419830 762.735901,416.662628 762.277710,416.656860 
	C759.578735,418.865631 756.872620,420.775696 755.186646,423.353119 
	C750.570374,430.410034 746.244202,437.668762 742.080627,445.005066 
	C739.727234,449.151825 737.827087,453.569153 735.959106,457.964996 
	C735.646484,458.700623 736.541626,459.949463 736.878723,460.961182 
	C736.620728,461.486877 736.362793,462.012573 735.500793,462.741577 
	C729.951050,462.741760 730.322815,467.736755 728.526306,470.200653 
	C725.464905,474.399231 720.495239,478.505859 723.005798,485.002594 
	C722.778259,485.526520 722.550659,486.050476 721.751953,486.778656 
	C720.018066,487.677216 718.855286,488.371521 717.692566,489.065826 
	C718.577393,490.069397 719.462280,491.072937 720.347107,492.076508 
	C732.882324,513.665466 745.442078,535.240234 757.945679,556.847473 
	C769.782715,577.302856 781.563965,597.790527 793.356873,618.271423 
	C794.068848,619.507935 794.666504,620.810242 795.737000,622.901917 
	C792.725769,623.095337 790.504456,623.360962 788.283020,623.362488 
	C742.288757,623.394470 696.294312,623.465637 650.300659,623.306213 
	C645.230652,623.288696 642.357910,624.801636 639.756348,629.365479 
	C616.594360,669.998901 593.136780,710.463806 569.755066,750.971924 
	C568.932861,752.396362 567.993713,753.753357 566.597656,755.944458 
	C562.757812,749.415039 559.156189,743.388062 555.647095,737.307678 
	C534.435791,700.553284 513.201538,663.812012 492.130554,626.977234 
	C490.403320,623.957886 488.324493,623.420898 485.278595,623.423340 
	C438.951477,623.460571 392.624298,623.421753 346.297150,623.400879 
	C343.682129,623.399658 341.067139,623.400696 337.086609,623.400696 
	C341.034698,616.444763 344.319092,610.579529 347.676270,604.756226 
	C368.379059,568.845337 388.974182,532.871094 409.955322,497.123535 
	C412.859100,492.176025 412.443054,488.817657 409.719696,484.149963 
	C386.484253,444.325653 363.502472,404.353333 340.462097,364.415253 
	C339.406067,362.584747 338.515686,360.658630 337.153015,358.008606 
	C339.811096,358.008606 341.738617,358.008453 343.666138,358.008636 
	C390.660278,358.012726 437.654572,357.965393 484.648285,358.112701 
	C488.676575,358.125305 490.838379,356.862946 492.848389,353.358093 
	C516.698059,311.771606 540.725159,270.286896 564.717407,228.782288 
	C565.199158,227.948990 565.823181,227.197983 566.848633,225.746262 
	C589.040894,264.223694 610.968994,302.243103 632.833130,340.930237 
	C631.911133,348.987518 637.880920,353.219818 640.852051,358.832062 
	C640.879395,358.883606 642.274475,358.211090 643.030945,357.876617 
z"/>
<path fill="#FEFEFE" opacity="1.000000" stroke="none" 
	d="
M289.835510,81.880394 
	C296.054626,71.215179 302.198242,60.927021 308.051483,50.476242 
	C309.740662,47.460293 311.748322,46.293324 315.166626,46.299751 
	C362.978485,46.389652 410.790771,46.433796 458.602203,46.274452 
	C462.693726,46.260815 464.500122,48.136513 466.253754,51.199448 
	C479.229156,73.862183 492.278076,96.482834 505.312134,119.111977 
	C516.109497,137.857834 526.901855,156.606705 537.740967,175.328415 
	C539.216064,177.876236 539.942505,179.955765 538.169678,183.004410 
	C514.078613,224.432114 490.118591,265.936340 466.275879,307.507538 
	C464.213409,311.103546 461.988098,312.608734 457.719482,312.596619 
	C410.074066,312.461365 362.427979,312.512329 314.782318,312.613525 
	C311.532166,312.620422 309.786926,311.487213 308.150024,308.635834 
	C284.874207,268.090973 261.531158,227.584000 237.968506,187.205490 
	C234.958115,182.046722 234.018158,178.253036 237.440552,172.485977 
	C255.181931,142.589981 272.308594,112.329208 289.835510,81.880394 
z"/>
<path fill="#FEFEFE" opacity="1.000000" stroke="none" 
	d="
M602.952271,162.978424 
	C603.190125,162.461868 603.427979,161.945312 604.275269,161.218933 
	C610.912964,160.557571 608.486084,156.022461 608.835754,152.828354 
	C608.835754,152.828354 608.915771,152.962692 609.222778,152.895996 
	C612.817261,151.998642 614.839722,150.591461 612.166138,147.044235 
	C621.540894,130.556351 630.867004,114.040535 640.304504,97.588669 
	C649.250244,81.993919 658.397339,66.514069 667.252686,50.868664 
	C669.021851,47.742916 670.992798,46.283710 674.663269,46.290195 
	C722.490601,46.374687 770.318237,46.365227 818.145630,46.290257 
	C821.540466,46.284939 823.531250,47.435917 825.269897,50.462879 
	C848.896423,91.598015 872.623169,132.675842 896.457520,173.690903 
	C898.667725,177.494370 899.191895,180.566147 896.833069,184.601318 
	C877.600037,217.502319 858.559692,250.515930 838.854858,283.760040 
	C836.802734,284.916595 834.712036,285.467987 834.028320,286.762512 
	C831.759583,291.058197 829.997253,295.621307 828.040771,300.081848 
	C823.231506,315.343201 824.041138,312.447906 810.473267,312.501221 
	C765.475037,312.678131 720.475464,312.527039 675.477051,312.675720 
	C671.477051,312.688934 669.248047,311.465912 667.249207,307.972778 
	C646.248169,271.271179 625.073547,234.668869 603.929443,197.283081 
	C604.025696,193.415237 605.625305,189.858124 601.094971,188.206085 
	C600.459351,187.974319 600.308350,186.502213 599.865356,185.638992 
	C597.299561,180.639008 599.012146,176.293076 601.356445,171.681442 
	C602.637573,169.161285 602.467773,165.903549 602.952271,162.978424 
z"/>
<path fill="#FFFFFE" opacity="1.000000" stroke="none" 
	d="
M239.000000,358.003784 
	C252.493637,358.001892 265.491272,358.178986 278.478455,357.888672 
	C282.358765,357.801910 284.484222,359.045410 286.368378,362.330200 
	C308.469269,400.859741 330.246185,439.588165 353.176849,477.620026 
	C359.342316,487.845856 358.610809,494.878326 352.711975,504.705231 
	C330.542694,541.637390 309.305817,579.132446 288.002441,616.577515 
	C285.067383,621.736511 281.842682,623.586060 275.876617,623.552673 
	C229.401093,623.292175 182.923172,623.353943 136.446747,623.523926 
	C131.814651,623.540894 129.463821,621.997681 127.158905,617.955261 
	C106.151825,581.112549 84.859261,544.432678 63.651825,507.704163 
	C60.992252,503.098145 58.095169,498.603882 55.821022,493.814301 
	C55.012768,492.112091 54.957554,489.245575 55.864441,487.655212 
	C72.927834,457.732269 90.182808,427.918549 107.408722,398.088318 
	C114.314735,386.129150 121.401482,374.270264 128.066574,362.178650 
	C129.892365,358.866364 131.998566,357.928711 135.550873,357.939850 
	C169.866974,358.047363 204.183563,358.004028 239.000000,358.003784 
z"/>
<path fill="#FFFFFE" opacity="1.000000" stroke="none" 
	d="
M263.774963,750.921753 
	C270.882233,738.333679 277.941345,725.718018 285.110107,713.165100 
	C292.538879,700.156738 300.219635,687.289673 307.467621,674.182434 
	C309.463654,670.572754 311.875885,669.449585 315.781097,669.457336 
	C363.269928,669.551697 410.759094,669.564575 458.247833,669.446777 
	C462.048065,669.437378 464.236298,670.597229 466.142700,673.936096 
	C482.398163,702.405090 498.912933,730.725952 515.164185,759.197327 
	C520.497192,768.540405 525.260803,778.207581 530.337646,787.698364 
	C531.612976,790.082520 533.092285,792.357727 534.077637,794.871521 
	C533.677429,795.060059 533.660828,795.166260 533.660828,795.166260 
	C533.660828,795.166260 533.783752,794.921143 533.783752,794.921143 
	C533.962036,794.739319 534.140381,794.557556 534.320068,794.840149 
	C533.721924,799.671875 534.544617,805.171448 532.183960,808.136536 
	C528.789551,812.399963 529.166199,816.521362 529.000366,821.001831 
	C521.596985,834.003418 514.254822,847.040344 506.776886,859.998840 
	C492.973053,883.919434 479.034454,907.762573 465.318573,931.733276 
	C463.834290,934.327332 462.215790,935.060303 459.426178,935.056580 
	C411.112549,934.992432 362.798767,935.005188 314.485077,935.048828 
	C311.832916,935.051208 309.869995,934.655457 308.347900,931.996216 
	C290.659241,901.092224 272.842529,870.261414 255.068756,839.406067 
	C254.821884,838.977539 254.690994,838.482178 254.644928,837.387756 
	C254.739944,835.003174 255.299301,832.918091 254.549637,831.550720 
	C250.951248,824.987183 247.002380,818.615723 243.169510,812.181030 
	C242.427322,810.935120 241.328598,809.801392 240.950897,808.459229 
	C240.157959,805.641663 238.564911,806.372925 236.811584,807.173340 
	C236.811584,807.173340 236.984787,807.009766 236.992188,806.748047 
	C237.807785,803.934387 237.962036,800.818359 239.568863,798.955078 
	C242.370438,795.706482 242.887756,792.495178 241.771652,788.669617 
	C242.935806,786.879639 244.099976,785.089661 245.906525,783.070068 
	C248.005356,781.501831 249.802429,780.386414 250.853912,778.782349 
	C253.921539,774.102478 256.966827,769.367126 259.493073,764.385864 
	C261.620575,760.190796 267.578064,757.040588 263.774963,750.921753 
z"/>
<path fill="#FFFFFE" opacity="1.000000" stroke="none" 
	d="
M897.091431,806.145386 
	C885.767944,825.925415 874.452148,845.709839 863.116638,865.483032 
	C859.390747,871.982300 855.754822,878.539551 851.815979,884.908386 
	C848.633850,890.053772 844.700684,894.754456 841.739319,900.012085 
	C836.954468,908.507385 832.219971,917.093140 828.359863,926.027649 
	C825.172607,933.404602 820.446228,935.279175 812.657227,935.212402 
	C766.844482,934.819641 721.026550,934.974365 675.210815,935.101013 
	C671.271545,935.111938 669.046936,933.959106 667.028137,930.438049 
	C643.109924,888.721069 618.960388,847.136780 595.099121,805.387512 
	C594.097778,803.635498 594.543457,800.172729 595.628845,798.247925 
	C606.826416,778.390686 618.303101,758.690918 629.685730,738.937927 
	C641.979492,717.603455 654.320923,696.295898 666.480469,674.885071 
	C668.693298,670.988770 671.369690,669.378723 675.950562,669.394104 
	C723.265564,669.553406 770.581360,669.491150 817.896606,669.595459 
	C819.852234,669.599731 821.805664,670.638916 823.557251,671.645264 
	C823.013184,673.030396 822.150452,674.174377 822.425598,674.864624 
	C823.369019,677.230835 824.583069,679.517456 825.926941,681.690186 
	C829.358215,687.237976 832.844666,692.756042 836.507080,698.151489 
	C836.992676,698.866821 838.629761,698.800537 839.733582,699.096191 
	C840.089111,699.549316 840.444641,700.002502 840.699097,701.054443 
	C841.399597,704.103516 842.201111,706.553711 843.001343,709.001953 
	C843.000000,709.000000 842.995422,708.997375 843.038208,709.382080 
	C843.883972,712.072876 844.324341,714.605347 845.585388,716.625549 
	C847.028137,718.936829 849.599121,720.556763 850.980164,722.891113 
	C855.038086,729.749878 858.537598,736.943726 862.707458,743.728821 
	C864.228271,746.203308 867.020752,747.896240 869.233032,749.945740 
	C869.233032,749.945740 869.579529,750.260376 869.393311,750.751465 
	C869.746643,753.587097 869.952637,756.079407 870.909302,758.239258 
	C872.138489,761.014282 874.087524,763.460205 875.518372,766.158325 
	C878.507019,771.794189 880.936462,777.778564 884.405396,783.090881 
	C887.031250,787.112000 891.092957,790.082520 890.689819,795.738098 
	C890.570679,797.409424 892.134521,799.296143 893.171326,800.929077 
	C894.333557,802.759583 895.772827,804.414246 897.091431,806.145386 
z"/>
<path fill="#FFFFFE" opacity="1.000000" stroke="none" 
	d="
M848.082825,361.027435 
	C848.752625,357.529266 851.467529,358.023315 853.936157,358.022888 
	C883.602539,358.017914 913.268921,358.008911 942.935303,358.004913 
	C961.268494,358.002441 979.602112,358.073578 997.934387,357.947632 
	C1001.328003,357.924316 1003.344666,358.987762 1005.088501,362.025146 
	C1029.037354,403.737793 1053.086182,445.393219 1077.240234,486.987366 
	C1078.894653,489.836365 1078.916260,491.902130 1077.290161,494.705414 
	C1053.322021,536.021973 1029.422241,577.378418 1005.627747,618.795227 
	C1003.756531,622.052185 1001.723328,623.474365 997.825867,623.463257 
	C949.826660,623.326660 901.826904,623.338562 853.827515,623.431824 
	C850.572693,623.438110 848.765137,622.379333 847.145020,619.553101 
	C828.931030,587.780334 810.580872,556.085571 792.274414,524.365845 
	C789.862793,520.187195 787.490051,515.986206 785.147217,511.122589 
	C783.938293,506.294922 783.683777,501.354309 781.187988,498.170837 
	C777.504333,493.472137 778.055542,489.708221 780.166016,484.886383 
	C781.708191,481.362946 782.125061,477.346985 783.043457,473.550537 
	C783.043457,473.550537 783.154663,473.244263 783.648071,473.249573 
	C788.436646,472.192596 790.972473,469.778107 792.579285,465.342346 
	C794.642578,459.646271 797.855835,454.345734 800.792603,448.995026 
	C802.511292,445.863617 806.228760,442.990967 806.276184,439.958557 
	C806.369324,434.007721 812.271362,431.820709 813.140137,426.611023 
	C813.518127,424.344055 815.627625,422.382751 816.872009,420.236938 
	C817.595947,418.988617 818.071777,417.594208 818.816650,416.360535 
	C824.765320,406.507782 830.752319,396.678101 836.721436,386.837616 
	C836.803589,386.702026 836.765747,386.492157 836.850769,386.359955 
	C839.168457,382.756744 841.972717,379.372101 843.695923,375.505371 
	C845.737854,370.923431 850.509888,367.000549 848.082825,361.027435 
z"/>
<path fill="#F4F5EA" opacity="1.000000" stroke="none" 
	d="
M847.794373,361.213013 
	C850.509888,367.000549 845.737854,370.923431 843.695923,375.505371 
	C841.972717,379.372101 839.168457,382.756744 836.850769,386.359955 
	C836.765747,386.492157 836.803589,386.702026 836.721436,386.837616 
	C830.752319,396.678101 824.765320,406.507782 818.816650,416.360535 
	C818.071777,417.594208 817.595947,418.988617 816.872009,420.236938 
	C815.627625,422.382751 813.518127,424.344055 813.140137,426.611023 
	C812.271362,431.820709 806.369324,434.007721 806.276184,439.958557 
	C806.228760,442.990967 802.511292,445.863617 800.792603,448.995026 
	C797.855835,454.345734 794.642578,459.646271 792.579285,465.342346 
	C790.972473,469.778107 788.436646,472.192596 783.779419,473.153198 
	C793.609314,455.123169 803.741089,437.160248 814.009583,419.275848 
	C825.108459,399.945251 836.335022,380.687927 847.794373,361.213013 
z"/>
<path fill="#F4F5EA" opacity="1.000000" stroke="none" 
	d="
M923.564941,853.134277 
	C926.907349,855.523743 925.016785,857.555054 923.100342,859.510742 
	C922.204651,860.424805 920.368958,861.107605 920.283813,862.018982 
	C919.460266,870.834656 910.879211,875.939087 909.648438,884.538818 
	C909.516785,885.458313 908.005493,886.100220 907.443970,887.053406 
	C905.758545,889.914307 904.245361,892.876160 902.629761,895.779053 
	C900.994324,898.717407 899.370483,901.664368 897.645691,904.550354 
	C894.539062,909.748230 891.316650,914.877014 888.223145,920.082520 
	C883.366455,928.255310 878.510071,936.429810 873.790833,944.682129 
	C871.856384,948.064819 870.405457,951.722473 868.502319,955.125122 
	C866.739990,958.276184 864.719299,961.289673 862.657104,964.255737 
	C862.436157,964.573547 861.177856,964.170044 860.136108,964.018372 
	C864.500977,955.514404 868.999634,947.018005 873.783936,938.685669 
	C889.670044,911.018372 905.657410,883.409241 921.616089,855.783691 
	C922.113403,854.922913 922.722717,854.126831 923.564941,853.134277 
z"/>
<path fill="#F4F5EA" opacity="1.000000" stroke="none" 
	d="
M101.427567,665.436279 
	C100.095795,665.108032 98.079605,664.798950 97.379967,663.672302 
	C94.778198,659.482483 92.643364,655.005371 90.269142,650.671204 
	C87.319664,645.286926 85.569595,638.034546 81.025375,635.018494 
	C74.191406,630.482849 74.887856,623.077454 71.005226,617.682373 
	C66.923775,612.011169 63.129162,606.038147 60.014156,599.795288 
	C57.243950,594.243469 51.560055,589.786621 52.970482,582.243164 
	C62.062332,597.113220 71.037025,612.244873 79.867981,627.459961 
	C87.116486,639.948547 94.194130,652.536316 101.427567,665.436279 
z"/>
<path fill="#F4F5EA" opacity="1.000000" stroke="none" 
	d="
M897.358398,805.896118 
	C895.772827,804.414246 894.333557,802.759583 893.171326,800.929077 
	C892.134521,799.296143 890.570679,797.409424 890.689819,795.738098 
	C891.092957,790.082520 887.031250,787.112000 884.405396,783.090881 
	C880.936462,777.778564 878.507019,771.794189 875.518372,766.158325 
	C874.087524,763.460205 872.138489,761.014282 870.909302,758.239258 
	C869.952637,756.079407 869.746643,753.587097 869.471924,750.971863 
	C879.138123,766.881531 888.622620,783.015076 897.808167,799.316956 
	C898.695862,800.892395 897.730469,803.511902 897.358398,805.896118 
z"/>
<path fill="#F4F5EA" opacity="1.000000" stroke="none" 
	d="
M869.134277,749.600952 
	C867.020752,747.896240 864.228271,746.203308 862.707458,743.728821 
	C858.537598,736.943726 855.038086,729.749878 850.980164,722.891113 
	C849.599121,720.556763 847.028137,718.936829 845.585388,716.625549 
	C844.324341,714.605347 843.883972,712.072876 843.071777,709.364685 
	C843.062561,708.962646 843.002625,709.003906 843.002625,709.003906 
	C842.201111,706.553711 841.399597,704.103516 840.766235,701.339050 
	C850.301392,717.101868 859.668457,733.179016 869.134277,749.600952 
z"/>
<path fill="#F4F5EA" opacity="1.000000" stroke="none" 
	d="
M924.022156,129.373566 
	C925.631958,130.207733 927.848389,131.032410 928.946655,132.627182 
	C933.487671,139.221115 937.723022,146.027557 941.986816,152.808624 
	C942.761108,154.040070 943.128967,155.524353 943.710022,156.880920 
	C944.218628,158.068085 944.446594,159.856827 945.343872,160.317276 
	C950.794312,163.114258 949.418213,169.240845 951.985657,173.396408 
	C952.108215,173.594696 951.538696,174.220581 951.101501,174.879333 
	C946.673462,168.209198 942.333740,161.366928 938.223816,154.389328 
	C933.416199,146.227219 928.808838,137.947128 924.022156,129.373566 
z"/>
<path fill="#F4F5EA" opacity="1.000000" stroke="none" 
	d="
M575.968750,864.630310 
	C574.554077,863.558899 573.084045,862.115967 571.558899,860.733704 
	C570.293274,859.586670 569.014893,857.715637 567.646729,857.626221 
	C566.261597,857.535767 564.198853,858.899414 563.401794,860.213684 
	C559.158203,867.211243 555.288086,874.434692 551.085266,881.458252 
	C550.565186,882.327454 548.835205,882.472717 547.302246,882.956299 
	C553.252319,871.671753 559.565979,860.384338 566.500671,847.986694 
	C570.008118,854.075378 572.948792,859.180237 575.968750,864.630310 
z"/>
<path fill="#F4F5EA" opacity="1.000000" stroke="none" 
	d="
M737.116760,460.718384 
	C736.541626,459.949463 735.646484,458.700623 735.959106,457.964996 
	C737.827087,453.569153 739.727234,449.151825 742.080627,445.005066 
	C746.244202,437.668762 750.570374,430.410034 755.186646,423.353119 
	C756.872620,420.775696 759.578735,418.865631 762.180542,416.731628 
	C754.145996,431.366608 745.750366,445.921112 737.116760,460.718384 
z"/>
<path fill="#F4F5EA" opacity="1.000000" stroke="none" 
	d="
M774.952148,395.040741 
	C774.448914,394.055908 773.539185,392.531616 773.966248,391.670044 
	C776.350525,386.860474 779.057617,382.210846 781.656006,377.507477 
	C782.510559,375.960693 783.520752,374.479523 784.196777,372.858673 
	C785.673157,369.319427 785.704285,365.002380 790.308289,363.267883 
	C791.009033,363.003876 790.822876,360.385681 791.006042,358.513245 
	C792.424194,358.170166 793.883179,358.170166 796.555054,358.170166 
	C789.165222,370.826263 782.164062,382.816772 774.952148,395.040741 
z"/>
<path fill="#F4F5EA" opacity="1.000000" stroke="none" 
	d="
M782.832764,473.775757 
	C782.125061,477.346985 781.708191,481.362946 780.166016,484.886383 
	C778.055542,489.708221 777.504333,493.472137 781.187988,498.170837 
	C783.683777,501.354309 783.938293,506.294922 785.051208,510.788147 
	C781.332581,505.152527 777.627258,499.249817 774.291443,493.145172 
	C773.609802,491.897797 773.787598,489.620819 774.475525,488.285339 
	C776.983398,483.416901 779.875122,478.746216 782.832764,473.775757 
z"/>
<path fill="#F4F5EA" opacity="1.000000" stroke="none" 
	d="
M602.689819,163.189087 
	C602.467773,165.903549 602.637573,169.161285 601.356445,171.681442 
	C599.012146,176.293076 597.299561,180.639008 599.865356,185.638992 
	C600.308350,186.502213 600.459351,187.974319 601.094971,188.206085 
	C605.625305,189.858124 604.025696,193.415237 603.869141,196.947235 
	C600.667419,192.139130 597.385864,186.978134 594.447632,181.628601 
	C593.822510,180.490433 593.956543,178.411957 594.582642,177.202423 
	C597.013306,172.506195 599.783508,167.985657 602.689819,163.189087 
z"/>
<path fill="#F4F5EA" opacity="1.000000" stroke="none" 
	d="
M263.511841,751.122437 
	C267.578064,757.040588 261.620575,760.190796 259.493073,764.385864 
	C256.966827,769.367126 253.921539,774.102478 250.853912,778.782349 
	C249.802429,780.386414 248.005356,781.501831 246.168884,782.865540 
	C246.335083,781.375977 246.670746,779.740173 247.461624,778.366394 
	C252.669312,769.320496 257.974976,760.331055 263.511841,751.122437 
z"/>
<path fill="#F4F5EA" opacity="1.000000" stroke="none" 
	d="
M236.873474,807.523926 
	C238.564911,806.372925 240.157959,805.641663 240.950897,808.459229 
	C241.328598,809.801392 242.427322,810.935120 243.169510,812.181030 
	C247.002380,818.615723 250.951248,824.987183 254.549637,831.550720 
	C255.299301,832.918091 254.739944,835.003174 254.552765,837.030396 
	C248.526245,827.493713 242.730820,817.684143 236.873474,807.523926 
z"/>
<path fill="#F4F5EA" opacity="1.000000" stroke="none" 
	d="
M50.056046,576.542114 
	C48.395164,576.120056 45.760731,575.837280 45.032875,574.509521 
	C40.818634,566.821472 37.037090,558.895264 33.183304,551.013367 
	C32.977592,550.592651 33.444935,549.842834 33.829376,549.113586 
	C39.360928,558.053528 44.662045,567.126099 50.056046,576.542114 
z"/>
<path fill="#F4F5EA" opacity="1.000000" stroke="none" 
	d="
M529.264893,820.789185 
	C529.166199,816.521362 528.789551,812.399963 532.183960,808.136536 
	C534.544617,805.171448 533.721924,799.671875 534.667908,794.997925 
	C540.504150,800.623779 540.676880,801.647339 536.859619,808.286255 
	C534.482239,812.421021 531.977173,816.482300 529.264893,820.789185 
z"/>
<path fill="#F4F5EA" opacity="1.000000" stroke="none" 
	d="
M248.330185,312.397766 
	C248.575363,310.981171 249.404892,309.732300 249.875122,308.360291 
	C250.246780,307.275848 250.626602,305.210449 250.234573,304.997955 
	C245.553314,302.460541 246.039108,297.468018 244.440018,293.484619 
	C243.764664,291.802338 242.894791,290.198151 242.103271,288.181396 
	C247.165497,295.617828 252.237793,303.431335 258.132965,312.512390 
	C253.893906,312.512390 251.326736,312.512390 248.330185,312.397766 
z"/>
<path fill="#F4F5EA" opacity="1.000000" stroke="none" 
	d="
M839.693481,698.749146 
	C838.629761,698.800537 836.992676,698.866821 836.507080,698.151489 
	C832.844666,692.756042 829.358215,687.237976 825.926941,681.690186 
	C824.583069,679.517456 823.369019,677.230835 822.425598,674.864624 
	C822.150452,674.174377 823.013184,673.030396 823.668823,672.049683 
	C829.206665,680.803955 834.429993,689.603027 839.693481,698.749146 
z"/>
<path fill="#F4F5EA" opacity="1.000000" stroke="none" 
	d="
M896.195251,81.292847 
	C897.211670,81.269539 898.713928,81.238457 899.334534,81.962784 
	C904.976868,88.548203 910.307556,95.342072 910.294922,105.035172 
	C905.520325,97.496994 900.896240,89.566223 896.195251,81.292847 
z"/>
<path fill="#F4F5EA" opacity="1.000000" stroke="none" 
	d="
M248.083344,685.058899 
	C244.359772,683.907227 245.167648,681.637207 247.122757,679.934814 
	C250.575485,676.928467 250.680069,673.862488 248.086853,670.046997 
	C250.652130,669.759277 253.374268,669.759277 257.151123,669.759277 
	C253.969086,675.216797 251.151886,680.048584 248.083344,685.058899 
z"/>
<path fill="#F4F5EA" opacity="1.000000" stroke="none" 
	d="
M723.280029,484.799377 
	C720.495239,478.505859 725.464905,474.399231 728.526306,470.200653 
	C730.322815,467.736755 729.951050,462.741760 735.264099,462.925354 
	C731.605713,470.135925 727.579956,477.366058 723.280029,484.799377 
z"/>
<path fill="#F4F5EA" opacity="1.000000" stroke="none" 
	d="
M762.988647,416.187927 
	C762.746704,409.427063 765.021179,403.255402 769.694824,398.084564 
	C770.589783,397.094360 772.266296,396.810547 773.962952,396.146301 
	C770.631470,402.713196 766.919250,409.334625 762.988647,416.187927 
z"/>
<path fill="#F4F5EA" opacity="1.000000" stroke="none" 
	d="
M642.897888,357.559387 
	C642.274475,358.211090 640.879395,358.883606 640.852051,358.832062 
	C637.880920,353.219818 631.911133,348.987518 632.902954,341.272766 
	C636.279541,346.379059 639.522217,351.810608 642.897888,357.559387 
z"/>
<path fill="#F4F5EA" opacity="1.000000" stroke="none" 
	d="
M828.335083,299.910278 
	C829.997253,295.621307 831.759583,291.058197 834.028320,286.762512 
	C834.712036,285.467987 836.802734,284.916595 838.627808,284.013916 
	C835.547546,289.248260 832.088501,294.493500 828.335083,299.910278 
z"/>
<path fill="#F4F5EA" opacity="1.000000" stroke="none" 
	d="
M241.523438,788.904297 
	C242.887756,792.495178 242.370438,795.706482 239.568863,798.955078 
	C237.962036,800.818359 237.807785,803.934387 236.907410,806.828735 
	C233.725571,804.408081 233.496124,801.468445 235.887161,798.036987 
	C237.865433,795.197998 239.492523,792.114319 241.523438,788.904297 
z"/>
<path fill="#F4F5EA" opacity="1.000000" stroke="none" 
	d="
M631.890015,961.675110 
	C626.636108,964.091858 626.784973,958.012512 623.958862,956.279907 
	C622.900940,955.631470 623.873169,951.671509 624.220764,949.026794 
	C626.957153,952.997803 629.392517,957.163452 631.890015,961.675110 
z"/>
<path fill="#DAD8CC" opacity="1.000000" stroke="none" 
	d="
M881.818420,303.905060 
	C881.275269,306.506714 880.732056,309.108368 880.229736,312.050964 
	C879.083740,312.391876 877.896973,312.391876 875.703308,312.391876 
	C877.778687,308.807922 879.438416,305.941864 881.404480,303.162415 
	C881.746704,303.467682 881.782593,303.686371 881.818420,303.905060 
z"/>
<path fill="#F4F5EA" opacity="1.000000" stroke="none" 
	d="
M241.019974,284.635254 
	C234.237915,285.300842 236.926117,279.755554 235.928635,276.251801 
	C237.712280,278.716034 239.369568,281.495331 241.019974,284.635254 
z"/>
<path fill="#F4F5EA" opacity="1.000000" stroke="none" 
	d="
M608.564331,153.028656 
	C608.486084,156.022461 610.912964,160.557571 604.485474,161.023499 
	C605.488464,158.434921 606.890686,155.831955 608.564331,153.028656 
z"/>
<path fill="#F4F5EA" opacity="1.000000" stroke="none" 
	d="
M882.170410,303.835693 
	C881.782593,303.686371 881.746704,303.467682 881.643433,302.922699 
	C882.791565,300.505798 884.007202,298.415253 885.492188,296.138519 
	C888.531860,300.152924 885.412598,301.912140 882.170410,303.835693 
z"/>
<path fill="#F4F5EA" opacity="1.000000" stroke="none" 
	d="
M580.243286,871.950806 
	C579.474548,872.587891 578.620972,872.927673 577.767395,873.267395 
	C577.392883,871.377075 577.018372,869.486816 576.821533,867.298401 
	C578.052307,868.551392 579.105408,870.102478 580.243286,871.950806 
z"/>
<path fill="#F4F5EA" opacity="1.000000" stroke="none" 
	d="
M611.898010,147.247437 
	C614.839722,150.591461 612.817261,151.998642 609.169312,152.838913 
	C609.749207,151.049225 610.689514,149.249939 611.898010,147.247437 
z"/>
<path fill="#F4F5EA" opacity="1.000000" stroke="none" 
	d="
M720.350708,491.684784 
	C719.462280,491.072937 718.577393,490.069397 717.692566,489.065826 
	C718.855286,488.371521 720.018066,487.677216 721.532593,486.966248 
	C721.374390,488.397430 720.864380,489.845245 720.350708,491.684784 
z"/>
<path fill="#F4F5EA" opacity="1.000000" stroke="none" 
	d="
M910.452393,106.214096 
	C911.675720,106.072754 912.990356,106.213295 914.305054,106.353836 
	C913.807922,107.193565 913.310791,108.033295 912.488525,108.945625 
	C911.623535,108.177475 911.083618,107.336723 910.452393,106.214096 
z"/>
<path fill="#F4F5EA" opacity="1.000000" stroke="none" 
	d="
M242.298950,312.404968 
	C242.917618,312.124359 243.927322,311.956848 245.016449,312.038208 
	C244.293900,312.364105 243.491959,312.441132 242.298950,312.404968 
z"/>
<path fill="#F4F5EA" opacity="1.000000" stroke="none" 
	d="
M103.224197,668.223389 
	C102.552818,668.699158 101.844955,668.927002 101.137085,669.154785 
	C101.199135,668.457031 101.261185,667.759338 101.561859,666.845398 
	C102.262894,667.077942 102.725311,667.526733 103.224197,668.223389 
z"/>
<path fill="#DAD8CC" opacity="1.000000" stroke="none" 
	d="
M101.923584,315.976105 
	C101.942673,315.442200 102.170700,314.751801 102.651199,314.000793 
	C102.646629,314.566650 102.389572,315.193115 101.923584,315.976105 
z"/>
<path fill="#F4F5EA" opacity="1.000000" stroke="none" 
	d="
M52.026108,579.649353 
	C51.430702,579.152161 50.791443,578.341248 50.137695,577.194885 
	C50.742889,577.684814 51.362572,578.510254 52.026108,579.649353 
z"/>
<path fill="#F4F5EA" opacity="1.000000" stroke="none" 
	d="
M533.777161,794.894226 
	C533.783752,794.921143 533.660828,795.166260 533.660828,795.166260 
	C533.660828,795.166260 533.677429,795.060059 533.700073,794.949829 
	C533.722656,794.839661 533.770569,794.867310 533.777161,794.894226 
z"/>
<path fill="#DAD8CC" opacity="1.000000" stroke="none" 
	d="
M1032.509888,313.504272 
	C1032.514771,313.492981 1032.505005,313.515594 1032.509888,313.504272 
z"/>
<path fill="#FFFFFE" opacity="1.000000" stroke="none" 
	d="
M843.001343,709.001953 
	C843.002625,709.003906 843.062561,708.962646 843.028992,708.979980 
	C842.995422,708.997375 843.000000,709.000000 843.001343,709.001953 
z"/>
</svg>